<svg width="16" height="16" viewBox="0 0 16 16" fill="none" xmlns="http://www.w3.org/2000/svg">
<rect width="16" height="16" rx="2" fill="white"/>
<g opacity="0.9">
<path d="M5.81168 7.57819C6.15111 7.68568 6.417 7.86671 6.60934 8.12128C6.80168 8.37019 6.89785 8.67851 6.89785 9.04622C6.89785 9.56668 6.6942 9.96833 6.28688 10.2512C5.88523 10.5284 5.29688 10.667 4.52185 10.667H1.45002V4.72699H4.35214C5.07625 4.72699 5.63065 4.86559 6.01534 5.14279C6.40568 5.41999 6.60085 5.79619 6.60085 6.27139C6.60085 6.55991 6.53014 6.81731 6.38871 7.04359C6.25294 7.26988 6.0606 7.44808 5.81168 7.57819ZM2.81623 5.76225V7.16239H4.18243C4.52185 7.16239 4.77925 7.10299 4.95463 6.98419C5.13 6.86539 5.21768 6.69002 5.21768 6.45808C5.21768 6.22613 5.13 6.05359 4.95463 5.94045C4.77925 5.82165 4.52185 5.76225 4.18243 5.76225H2.81623ZM4.42003 9.63173C4.78208 9.63173 5.05363 9.57233 5.23465 9.45353C5.42134 9.33473 5.51468 9.15088 5.51468 8.90196C5.51468 8.40979 5.1498 8.16371 4.42003 8.16371H2.81623V9.63173H4.42003Z" fill="#3E54D8"/>
<path d="M13.2592 10.667L13.2507 7.10299L11.5026 10.039H10.8832L9.14359 7.17936V10.667H7.85376V4.72699H8.99084L11.2141 8.41828L13.4034 4.72699H14.532L14.549 10.667H13.2592Z" fill="#ED6373"/>
</g>
</svg>
