<svg width="162" height="43" viewBox="0 0 162 43" fill="none" xmlns="http://www.w3.org/2000/svg">
<g opacity="0.9">
<path d="M15.6097 15.523C16.6511 15.8528 17.4669 16.4082 18.0571 17.1893C18.6472 17.953 18.9423 18.899 18.9423 20.0272C18.9423 21.624 18.3174 22.8564 17.0677 23.7242C15.8354 24.5747 14.0302 25 11.6523 25H2.22736V6.775H11.1316C13.3533 6.775 15.0543 7.20025 16.2346 8.05075C17.4322 8.90125 18.031 10.0555 18.031 11.5135C18.031 12.3987 17.8141 13.1885 17.3801 13.8827C16.9636 14.577 16.3734 15.1238 15.6097 15.523ZM6.41911 9.95136V14.2472H10.6109C11.6523 14.2472 12.442 14.065 12.9801 13.7005C13.5182 13.336 13.7872 12.7979 13.7872 12.0863C13.7872 11.3746 13.5182 10.8452 12.9801 10.4981C12.442 10.1336 11.6523 9.95136 10.6109 9.95136H6.41911ZM11.3399 21.8236C12.4507 21.8236 13.2839 21.6414 13.8393 21.2769C14.4121 20.9124 14.6985 20.3483 14.6985 19.5846C14.6985 18.0745 13.5789 17.3195 11.3399 17.3195H6.41911V21.8236H11.3399ZM35.57 18.0485C35.57 18.1005 35.5439 18.465 35.4918 19.142H24.8953C25.0862 20.0098 25.5375 20.6954 26.2492 21.1988C26.9608 21.7021 27.846 21.9538 28.9048 21.9538C29.6338 21.9538 30.276 21.8497 30.8315 21.6414C31.4042 21.4157 31.9336 21.0686 32.4196 20.6L34.5806 22.9432C33.2615 24.4532 31.3348 25.2083 28.8007 25.2083C27.2212 25.2083 25.8239 24.9045 24.6089 24.297C23.3939 23.6722 22.4566 22.813 21.7971 21.7195C21.1375 20.626 20.8077 19.385 20.8077 17.9964C20.8077 16.6252 21.1288 15.3928 21.771 14.2993C22.4306 13.1885 23.3245 12.3293 24.4527 11.7218C25.5983 11.0969 26.874 10.7845 28.28 10.7845C29.6512 10.7845 30.8922 11.0796 32.0031 11.6697C33.1139 12.2599 33.9818 13.1104 34.6066 14.2212C35.2488 15.3147 35.57 16.5905 35.57 18.0485ZM28.306 13.8567C27.3861 13.8567 26.6137 14.1171 25.9888 14.6378C25.364 15.1585 24.9821 15.8701 24.8432 16.7727H31.7427C31.6038 15.8875 31.222 15.1845 30.5971 14.6638C29.9723 14.1257 29.2086 13.8567 28.306 13.8567ZM43.5424 10.7845C45.712 10.7845 47.3783 11.3052 48.5412 12.3466C49.7042 13.3707 50.2856 14.9242 50.2856 17.007V25H46.4844V23.2556C45.7207 24.5574 44.2974 25.2083 42.2146 25.2083C41.1384 25.2083 40.2011 25.026 39.4027 24.6615C38.6216 24.297 38.0228 23.7937 37.6062 23.1515C37.1897 22.5092 36.9814 21.7802 36.9814 20.9645C36.9814 19.6627 37.4674 18.6386 38.4394 17.8922C39.4287 17.1459 40.9475 16.7727 42.9956 16.7727H46.2241C46.2241 15.8875 45.955 15.2106 45.4169 14.7419C44.8789 14.2559 44.0718 14.0129 42.9956 14.0129C42.2493 14.0129 41.5116 14.1344 40.7826 14.3774C40.0709 14.6031 39.4634 14.9155 38.9601 15.3147L37.5021 12.4768C38.2658 11.9387 39.1771 11.5222 40.2358 11.2271C41.312 10.932 42.4142 10.7845 43.5424 10.7845ZM43.2299 22.4745C43.9242 22.4745 44.5404 22.3183 45.0785 22.0059C45.6166 21.6761 45.9984 21.1988 46.2241 20.5739V19.142H43.4382C41.7719 19.142 40.9388 19.6887 40.9388 20.7822C40.9388 21.3029 41.1384 21.7195 41.5376 22.0319C41.9542 22.327 42.5183 22.4745 43.2299 22.4745ZM62.9959 24.3231C62.5967 24.6181 62.102 24.8438 61.5119 25C60.9391 25.1389 60.3316 25.2083 59.6894 25.2083C58.0231 25.2083 56.73 24.783 55.8101 23.9325C54.9075 23.082 54.4562 21.8323 54.4562 20.1834V14.4295H52.2953V11.3052H54.4562V7.89454H58.5178V11.3052H62.0066V14.4295H58.5178V20.1313C58.5178 20.7215 58.6653 21.1814 58.9604 21.5112C59.2728 21.8236 59.7068 21.9799 60.2622 21.9799C60.9044 21.9799 61.4512 21.8063 61.9024 21.4591L62.9959 24.3231Z" fill="#3E54D8"/>
<path d="M82.147 25L82.121 14.065L76.7576 23.0734H74.857L69.5197 14.2993V25H65.5623V6.775H69.0511L75.8724 18.1005L82.5896 6.775H86.0524L86.1045 25H82.147ZM95.7918 10.7845C97.9614 10.7845 99.6277 11.3052 100.791 12.3466C101.954 13.3707 102.535 14.9242 102.535 17.007V25H98.7338V23.2556C97.9701 24.5574 96.5468 25.2083 94.464 25.2083C93.3878 25.2083 92.4505 25.026 91.6521 24.6615C90.871 24.297 90.2722 23.7937 89.8556 23.1515C89.4391 22.5092 89.2308 21.7802 89.2308 20.9645C89.2308 19.6627 89.7168 18.6386 90.6888 17.8922C91.6781 17.1459 93.1969 16.7727 95.245 16.7727H98.4735C98.4735 15.8875 98.2044 15.2106 97.6664 14.7419C97.1283 14.2559 96.3212 14.0129 95.245 14.0129C94.4987 14.0129 93.761 14.1344 93.032 14.3774C92.3204 14.6031 91.7129 14.9155 91.2095 15.3147L89.7515 12.4768C90.5152 11.9387 91.4265 11.5222 92.4852 11.2271C93.5614 10.932 94.6636 10.7845 95.7918 10.7845ZM95.4794 22.4745C96.1736 22.4745 96.7898 22.3183 97.3279 22.0059C97.866 21.6761 98.2478 21.1988 98.4735 20.5739V19.142H95.6876C94.0214 19.142 93.1882 19.6887 93.1882 20.7822C93.1882 21.3029 93.3878 21.7195 93.787 22.0319C94.2036 22.327 94.7677 22.4745 95.4794 22.4745ZM110.09 12.8413C110.576 12.1644 111.227 11.6524 112.043 11.3052C112.876 10.9581 113.831 10.7845 114.907 10.7845V14.5336C114.456 14.4989 114.152 14.4816 113.996 14.4816C112.833 14.4816 111.921 14.8114 111.262 15.4709C110.602 16.1131 110.273 17.0851 110.273 18.3869V25H106.211V10.9928H110.09V12.8413ZM123.336 19.5065L121.383 21.4331V25H117.322V5.6815H121.383V16.6165L127.32 10.9928H132.162L126.33 16.9289L132.683 25H127.762L123.336 19.5065ZM147.62 18.0485C147.62 18.1005 147.594 18.465 147.542 19.142H136.946C137.136 20.0098 137.588 20.6954 138.299 21.1988C139.011 21.7021 139.896 21.9538 140.955 21.9538C141.684 21.9538 142.326 21.8497 142.882 21.6414C143.454 21.4157 143.984 21.0686 144.47 20.6L146.631 22.9432C145.312 24.4532 143.385 25.2083 140.851 25.2083C139.271 25.2083 137.874 24.9045 136.659 24.297C135.444 23.6722 134.507 22.813 133.847 21.7195C133.188 20.626 132.858 19.385 132.858 17.9964C132.858 16.6252 133.179 15.3928 133.821 14.2993C134.481 13.1885 135.375 12.3293 136.503 11.7218C137.648 11.0969 138.924 10.7845 140.33 10.7845C141.701 10.7845 142.942 11.0796 144.053 11.6697C145.164 12.2599 146.032 13.1104 146.657 14.2212C147.299 15.3147 147.62 16.5905 147.62 18.0485ZM140.356 13.8567C139.436 13.8567 138.664 14.1171 138.039 14.6378C137.414 15.1585 137.032 15.8701 136.893 16.7727H143.793C143.654 15.8875 143.272 15.1845 142.647 14.6638C142.022 14.1257 141.259 13.8567 140.356 13.8567ZM159.359 24.3231C158.959 24.6181 158.465 24.8438 157.875 25C157.302 25.1389 156.694 25.2083 156.052 25.2083C154.386 25.2083 153.093 24.783 152.173 23.9325C151.27 23.082 150.819 21.8323 150.819 20.1834V14.4295H148.658V11.3052H150.819V7.89454H154.88V11.3052H158.369V14.4295H154.88V20.1313C154.88 20.7215 155.028 21.1814 155.323 21.5112C155.635 21.8236 156.069 21.9799 156.625 21.9799C157.267 21.9799 157.814 21.8063 158.265 21.4591L159.359 24.3231Z" fill="#ED6373"/>
</g>
<path d="M6.64628 35.0049V40.0674H6.11834V35.4677H2.9145V40.0674H2.38655V35.0049H6.64628ZM11.1967 36.2633V40.0674H10.6832V36.7189H8.86073L8.81011 37.6591C8.77153 38.4498 8.67993 39.0573 8.53528 39.4816C8.39064 39.9059 8.13269 40.118 7.76144 40.118C7.66019 40.118 7.53725 40.0987 7.39261 40.0602L7.42877 39.619C7.51555 39.6383 7.57582 39.6479 7.60957 39.6479C7.80725 39.6479 7.95671 39.5563 8.05796 39.3731C8.15921 39.1899 8.22671 38.9633 8.26046 38.6933C8.29421 38.4233 8.32314 38.0665 8.34725 37.6229L8.41234 36.2633H11.1967ZM13.8208 36.2343C14.3174 36.2343 14.6983 36.3597 14.9635 36.6104C15.2287 36.8563 15.3612 37.2227 15.3612 37.7097V40.0674H14.8695V39.4743C14.7537 39.672 14.5826 39.8263 14.356 39.9372C14.1342 40.0481 13.869 40.1035 13.5604 40.1035C13.1362 40.1035 12.7987 40.0023 12.5479 39.7998C12.2972 39.5973 12.1719 39.3297 12.1719 38.997C12.1719 38.674 12.2876 38.4136 12.519 38.216C12.7553 38.0183 13.1289 37.9194 13.64 37.9194H14.8478V37.688C14.8478 37.3602 14.7562 37.1118 14.5729 36.9431C14.3897 36.7695 14.1221 36.6827 13.7702 36.6827C13.5291 36.6827 13.2977 36.7237 13.0759 36.8057C12.8541 36.8828 12.6637 36.9913 12.5045 37.1311L12.2731 36.7478C12.466 36.5839 12.6974 36.4585 12.9674 36.3718C13.2374 36.2802 13.5219 36.2343 13.8208 36.2343ZM13.64 39.6985C13.9293 39.6985 14.1776 39.6335 14.3849 39.5033C14.5922 39.3683 14.7465 39.1754 14.8478 38.9247V38.3027H13.6545C13.0036 38.3027 12.6781 38.5293 12.6781 38.9826C12.6781 39.2043 12.7625 39.3803 12.9312 39.5105C13.1 39.6359 13.3362 39.6985 13.64 39.6985ZM19.2594 36.7189H17.8202V40.0674H17.3067V36.7189H15.8675V36.2633H19.2594V36.7189ZM24.273 38.1581C24.273 38.7511 24.0778 39.2164 23.6872 39.5539C23.2967 39.8914 22.7447 40.0746 22.0311 40.1035V41.4704H21.5321V40.1108C20.8233 40.0818 20.2737 39.8986 19.8831 39.5611C19.4974 39.2188 19.3046 38.7511 19.3046 38.1581C19.3046 37.5699 19.4974 37.1094 19.8831 36.7768C20.2737 36.4441 20.8233 36.2633 21.5321 36.2343V34.7011H22.0311V36.2343C22.7447 36.2681 23.2967 36.4513 23.6872 36.784C24.0778 37.1167 24.273 37.5747 24.273 38.1581ZM19.8108 38.1581C19.8108 38.6113 19.9555 38.9657 20.2447 39.2212C20.5389 39.4768 20.968 39.6214 21.5321 39.6552V36.69C20.9728 36.7189 20.5461 36.8611 20.252 37.1167C19.9579 37.3674 19.8108 37.7145 19.8108 38.1581ZM22.0311 39.6552C22.5952 39.6262 23.0243 39.484 23.3184 39.2285C23.6173 38.9729 23.7668 38.6161 23.7668 38.1581C23.7668 37.7097 23.6173 37.3602 23.3184 37.1094C23.0243 36.8587 22.5952 36.7189 22.0311 36.69V39.6552ZM26.7837 40.1035C26.4173 40.1035 26.087 40.0216 25.7929 39.8577C25.4988 39.6889 25.2674 39.4575 25.0986 39.1634C24.9299 38.8693 24.8455 38.5366 24.8455 38.1653C24.8455 37.7941 24.9299 37.4614 25.0986 37.1673C25.2674 36.8732 25.4988 36.6442 25.7929 36.4802C26.087 36.3163 26.4173 36.2343 26.7837 36.2343C27.1502 36.2343 27.4804 36.3163 27.7745 36.4802C28.0686 36.6442 28.2977 36.8732 28.4616 37.1673C28.6303 37.4614 28.7147 37.7941 28.7147 38.1653C28.7147 38.5366 28.6303 38.8693 28.4616 39.1634C28.2977 39.4575 28.0686 39.6889 27.7745 39.8577C27.4804 40.0216 27.1502 40.1035 26.7837 40.1035ZM26.7837 39.6479C27.0537 39.6479 27.2948 39.5877 27.5069 39.4671C27.7239 39.3418 27.8927 39.1658 28.0132 38.9392C28.1337 38.7126 28.194 38.4546 28.194 38.1653C28.194 37.876 28.1337 37.6181 28.0132 37.3915C27.8927 37.1649 27.7239 36.9913 27.5069 36.8708C27.2948 36.7454 27.0537 36.6827 26.7837 36.6827C26.5137 36.6827 26.2703 36.7454 26.0533 36.8708C25.8411 36.9913 25.6724 37.1649 25.547 37.3915C25.4265 37.6181 25.3662 37.876 25.3662 38.1653C25.3662 38.4546 25.4265 38.7126 25.547 38.9392C25.6724 39.1658 25.8411 39.3418 26.0533 39.4671C26.2703 39.5877 26.5137 39.6479 26.7837 39.6479ZM31.6274 36.2343C31.9842 36.2343 32.3072 36.3163 32.5965 36.4802C32.8858 36.6393 33.1124 36.866 33.2763 37.1601C33.4403 37.4542 33.5222 37.7893 33.5222 38.1653C33.5222 38.5462 33.4403 38.8837 33.2763 39.1778C33.1124 39.4719 32.8858 39.701 32.5965 39.8649C32.312 40.024 31.989 40.1035 31.6274 40.1035C31.3188 40.1035 31.0392 40.0409 30.7885 39.9155C30.5426 39.7853 30.3401 39.5973 30.181 39.3514V41.4704H29.6675V36.2633H30.1593V37.0154C30.3136 36.7647 30.5161 36.5718 30.7668 36.4368C31.0223 36.3018 31.3092 36.2343 31.6274 36.2343ZM31.5912 39.6479C31.8564 39.6479 32.0975 39.5877 32.3145 39.4671C32.5314 39.3418 32.7002 39.1658 32.8207 38.9392C32.9461 38.7126 33.0087 38.4546 33.0087 38.1653C33.0087 37.876 32.9461 37.6205 32.8207 37.3987C32.7002 37.1721 32.5314 36.9961 32.3145 36.8708C32.0975 36.7454 31.8564 36.6827 31.5912 36.6827C31.3212 36.6827 31.0778 36.7454 30.8608 36.8708C30.6487 36.9961 30.4799 37.1721 30.3545 37.3987C30.234 37.6205 30.1737 37.876 30.1737 38.1653C30.1737 38.4546 30.234 38.7126 30.3545 38.9392C30.4799 39.1658 30.6487 39.3418 30.8608 39.4671C31.0778 39.5877 31.3212 39.6479 31.5912 39.6479ZM38.7333 36.2633V40.0674H38.2632V37.0588L36.7228 39.6045H36.4914L34.9509 37.0516V40.0674H34.4808V36.2633H35.0015L36.6143 39.0043L38.256 36.2633H38.7333ZM41.3589 36.2343C41.8555 36.2343 42.2364 36.3597 42.5016 36.6104C42.7667 36.8563 42.8993 37.2227 42.8993 37.7097V40.0674H42.4075V39.4743C42.2918 39.672 42.1207 39.8263 41.8941 39.9372C41.6723 40.0481 41.4071 40.1035 41.0985 40.1035C40.6742 40.1035 40.3367 40.0023 40.086 39.7998C39.8353 39.5973 39.7099 39.3297 39.7099 38.997C39.7099 38.674 39.8257 38.4136 40.0571 38.216C40.2933 38.0183 40.667 37.9194 41.1781 37.9194H42.3858V37.688C42.3858 37.3602 42.2942 37.1118 42.111 36.9431C41.9278 36.7695 41.6602 36.6827 41.3082 36.6827C41.0672 36.6827 40.8357 36.7237 40.614 36.8057C40.3922 36.8828 40.2017 36.9913 40.0426 37.1311L39.8112 36.7478C40.0041 36.5839 40.2355 36.4585 40.5055 36.3718C40.7755 36.2802 41.0599 36.2343 41.3589 36.2343ZM41.1781 39.6985C41.4674 39.6985 41.7157 39.6335 41.923 39.5033C42.1303 39.3683 42.2846 39.1754 42.3858 38.9247V38.3027H41.1925C40.5416 38.3027 40.2162 38.5293 40.2162 38.9826C40.2162 39.2043 40.3006 39.3803 40.4693 39.5105C40.6381 39.6359 40.8743 39.6985 41.1781 39.6985ZM43.8251 37.8833H45.7199V38.3317H43.8251V37.8833ZM50.152 36.2633V40.0674H49.6385V36.7189H47.2519V40.0674H46.7385V36.2633H50.152ZM53.0364 40.1035C52.67 40.1035 52.3397 40.0216 52.0456 39.8577C51.7515 39.6889 51.5201 39.4575 51.3513 39.1634C51.1826 38.8693 51.0982 38.5366 51.0982 38.1653C51.0982 37.7941 51.1826 37.4614 51.3513 37.1673C51.5201 36.8732 51.7515 36.6442 52.0456 36.4802C52.3397 36.3163 52.67 36.2343 53.0364 36.2343C53.4028 36.2343 53.7331 36.3163 54.0272 36.4802C54.3213 36.6442 54.5503 36.8732 54.7143 37.1673C54.883 37.4614 54.9674 37.7941 54.9674 38.1653C54.9674 38.5366 54.883 38.8693 54.7143 39.1634C54.5503 39.4575 54.3213 39.6889 54.0272 39.8577C53.7331 40.0216 53.4028 40.1035 53.0364 40.1035ZM53.0364 39.6479C53.3064 39.6479 53.5475 39.5877 53.7596 39.4671C53.9766 39.3418 54.1453 39.1658 54.2659 38.9392C54.3864 38.7126 54.4467 38.4546 54.4467 38.1653C54.4467 37.876 54.3864 37.6181 54.2659 37.3915C54.1453 37.1649 53.9766 36.9913 53.7596 36.8708C53.5475 36.7454 53.3064 36.6827 53.0364 36.6827C52.7664 36.6827 52.5229 36.7454 52.306 36.8708C52.0938 36.9913 51.9251 37.1649 51.7997 37.3915C51.6792 37.6181 51.6189 37.876 51.6189 38.1653C51.6189 38.4546 51.6792 38.7126 51.7997 38.9392C51.9251 39.1658 52.0938 39.3418 52.306 39.4671C52.5229 39.5877 52.7664 39.6479 53.0364 39.6479ZM60.1727 36.2633V40.0674H59.7026V37.0588L58.1621 39.6045H57.9307L56.3903 37.0516V40.0674H55.9202V36.2633H56.4409L58.0537 39.0043L59.6953 36.2633H60.1727ZM63.0586 40.1035C62.6922 40.1035 62.3619 40.0216 62.0678 39.8577C61.7737 39.6889 61.5422 39.4575 61.3735 39.1634C61.2047 38.8693 61.1204 38.5366 61.1204 38.1653C61.1204 37.7941 61.2047 37.4614 61.3735 37.1673C61.5422 36.8732 61.7737 36.6442 62.0678 36.4802C62.3619 36.3163 62.6922 36.2343 63.0586 36.2343C63.425 36.2343 63.7553 36.3163 64.0494 36.4802C64.3435 36.6442 64.5725 36.8732 64.7364 37.1673C64.9052 37.4614 64.9896 37.7941 64.9896 38.1653C64.9896 38.5366 64.9052 38.8693 64.7364 39.1634C64.5725 39.4575 64.3435 39.6889 64.0494 39.8577C63.7553 40.0216 63.425 40.1035 63.0586 40.1035ZM63.0586 39.6479C63.3286 39.6479 63.5697 39.5877 63.7818 39.4671C63.9988 39.3418 64.1675 39.1658 64.288 38.9392C64.4086 38.7126 64.4688 38.4546 64.4688 38.1653C64.4688 37.876 64.4086 37.6181 64.288 37.3915C64.1675 37.1649 63.9988 36.9913 63.7818 36.8708C63.5697 36.7454 63.3286 36.6827 63.0586 36.6827C62.7886 36.6827 62.5451 36.7454 62.3281 36.8708C62.116 36.9913 61.9472 37.1649 61.8219 37.3915C61.7013 37.6181 61.6411 37.876 61.6411 38.1653C61.6411 38.4546 61.7013 38.7126 61.8219 38.9392C61.9472 39.1658 62.116 39.3418 62.3281 39.4671C62.5451 39.5877 62.7886 39.6479 63.0586 39.6479ZM71.1929 36.2633V40.0674H65.9423V36.2633H66.4558V39.619H68.3217V36.2633H68.8352V39.619H70.6794V36.2633H71.1929ZM71.7787 39.619V40.8991H71.2941V40.0674H70.6505V39.619H71.7787ZM72.5143 36.2633H73.0277V37.9484H75.4216V36.2633H75.9351V40.0674H75.4216V38.3895H73.0277V40.0674H72.5143V36.2633ZM77.2499 36.2633H77.7634V39.2863L80.3019 36.2633H80.7575V40.0674H80.244V37.0443L77.7128 40.0674H77.2499V36.2633ZM83.4658 38.3751H82.5979V40.0674H82.0844V36.2633H82.5979V37.9339H83.473L84.8109 36.2633H85.3678L83.8708 38.1075L85.4763 40.0674H84.8688L83.4658 38.3751ZM87.8902 36.2633H88.4037V37.9484H90.7975V36.2633H91.311V40.0674H90.7975V38.3895H88.4037V40.0674H87.8902V36.2633ZM93.9349 36.2343C94.4315 36.2343 94.8124 36.3597 95.0775 36.6104C95.3427 36.8563 95.4753 37.2227 95.4753 37.7097V40.0674H94.9835V39.4743C94.8678 39.672 94.6966 39.8263 94.47 39.9372C94.2483 40.0481 93.9831 40.1035 93.6745 40.1035C93.2502 40.1035 92.9127 40.0023 92.662 39.7998C92.4113 39.5973 92.2859 39.3297 92.2859 38.997C92.2859 38.674 92.4016 38.4136 92.6331 38.216C92.8693 38.0183 93.243 37.9194 93.7541 37.9194H94.9618V37.688C94.9618 37.3602 94.8702 37.1118 94.687 36.9431C94.5038 36.7695 94.2362 36.6827 93.8842 36.6827C93.6432 36.6827 93.4117 36.7237 93.1899 36.8057C92.9682 36.8828 92.7777 36.9913 92.6186 37.1311L92.3872 36.7478C92.58 36.5839 92.8115 36.4585 93.0815 36.3718C93.3515 36.2802 93.6359 36.2343 93.9349 36.2343ZM93.7541 39.6985C94.0433 39.6985 94.2916 39.6335 94.499 39.5033C94.7063 39.3683 94.8606 39.1754 94.9618 38.9247V38.3027H93.7685C93.1176 38.3027 92.7922 38.5293 92.7922 38.9826C92.7922 39.2043 92.8766 39.3803 93.0453 39.5105C93.2141 39.6359 93.4503 39.6985 93.7541 39.6985ZM103.986 37.5289C103.986 38.1991 103.747 38.727 103.27 39.1127C102.797 39.4936 102.134 39.6961 101.281 39.7202V40.241H100.782V39.7202C99.9283 39.6913 99.263 39.4864 98.7857 39.1055C98.3132 38.7246 98.0769 38.1991 98.0769 37.5289C98.0769 36.8587 98.3132 36.3332 98.7857 35.9523C99.263 35.5714 99.9283 35.3665 100.782 35.3376V34.8313H101.281V35.3376C102.129 35.3665 102.792 35.5738 103.27 35.9595C103.747 36.3404 103.986 36.8635 103.986 37.5289ZM101.281 39.2935C101.98 39.2646 102.52 39.0983 102.901 38.7945C103.282 38.4908 103.472 38.0689 103.472 37.5289C103.472 36.9889 103.279 36.567 102.894 36.2633C102.513 35.9595 101.975 35.7956 101.281 35.7715V39.2935ZM98.5904 37.5289C98.5904 38.0689 98.7808 38.4908 99.1617 38.7945C99.5474 39.0935 100.087 39.2598 100.782 39.2935V35.7715C100.078 35.8004 99.5354 35.9668 99.1545 36.2705C98.7784 36.5694 98.5904 36.9889 98.5904 37.5289ZM106.502 40.1035C106.136 40.1035 105.806 40.0216 105.511 39.8577C105.217 39.6889 104.986 39.4575 104.817 39.1634C104.648 38.8693 104.564 38.5366 104.564 38.1653C104.564 37.7941 104.648 37.4614 104.817 37.1673C104.986 36.8732 105.217 36.6442 105.511 36.4802C105.806 36.3163 106.136 36.2343 106.502 36.2343C106.869 36.2343 107.199 36.3163 107.493 36.4802C107.787 36.6442 108.016 36.8732 108.18 37.1673C108.349 37.4614 108.433 37.7941 108.433 38.1653C108.433 38.5366 108.349 38.8693 108.18 39.1634C108.016 39.4575 107.787 39.6889 107.493 39.8577C107.199 40.0216 106.869 40.1035 106.502 40.1035ZM106.502 39.6479C106.772 39.6479 107.013 39.5877 107.226 39.4671C107.442 39.3418 107.611 39.1658 107.732 38.9392C107.852 38.7126 107.913 38.4546 107.913 38.1653C107.913 37.876 107.852 37.6181 107.732 37.3915C107.611 37.1649 107.442 36.9913 107.226 36.8708C107.013 36.7454 106.772 36.6827 106.502 36.6827C106.232 36.6827 105.989 36.7454 105.772 36.8708C105.56 36.9913 105.391 37.1649 105.266 37.3915C105.145 37.6181 105.085 37.876 105.085 38.1653C105.085 38.4546 105.145 38.7126 105.266 38.9392C105.391 39.1658 105.56 39.3418 105.772 39.4671C105.989 39.5877 106.232 39.6479 106.502 39.6479ZM109.386 36.2633H109.9V37.9484H112.293V36.2633H112.807V40.0674H112.293V38.3895H109.9V40.0674H109.386V36.2633ZM117.832 39.619V40.9859H117.347V40.0674H113.941V40.9859H113.456V39.619H113.673C113.929 39.6045 114.102 39.4165 114.194 39.0549C114.286 38.6933 114.348 38.187 114.382 37.5361L114.433 36.2633H117.239V39.619H117.832ZM114.852 37.5651C114.828 38.1051 114.782 38.551 114.715 38.903C114.647 39.2502 114.527 39.4888 114.353 39.619H116.725V36.7189H114.896L114.852 37.5651ZM120.257 40.1035C119.891 40.1035 119.561 40.0216 119.266 39.8577C118.972 39.6889 118.741 39.4575 118.572 39.1634C118.403 38.8693 118.319 38.5366 118.319 38.1653C118.319 37.7941 118.403 37.4614 118.572 37.1673C118.741 36.8732 118.972 36.6442 119.266 36.4802C119.561 36.3163 119.891 36.2343 120.257 36.2343C120.624 36.2343 120.954 36.3163 121.248 36.4802C121.542 36.6442 121.771 36.8732 121.935 37.1673C122.104 37.4614 122.188 37.7941 122.188 38.1653C122.188 38.5366 122.104 38.8693 121.935 39.1634C121.771 39.4575 121.542 39.6889 121.248 39.8577C120.954 40.0216 120.624 40.1035 120.257 40.1035ZM120.257 39.6479C120.527 39.6479 120.768 39.5877 120.98 39.4671C121.197 39.3418 121.366 39.1658 121.487 38.9392C121.607 38.7126 121.667 38.4546 121.667 38.1653C121.667 37.876 121.607 37.6181 121.487 37.3915C121.366 37.1649 121.197 36.9913 120.98 36.8708C120.768 36.7454 120.527 36.6827 120.257 36.6827C119.987 36.6827 119.744 36.7454 119.527 36.8708C119.315 36.9913 119.146 37.1649 119.021 37.3915C118.9 37.6181 118.84 37.876 118.84 38.1653C118.84 38.4546 118.9 38.7126 119.021 38.9392C119.146 39.1658 119.315 39.3418 119.527 39.4671C119.744 39.5877 119.987 39.6479 120.257 39.6479ZM125.564 38.1002C126.08 38.2208 126.338 38.5318 126.338 39.0332C126.338 39.3659 126.215 39.6214 125.969 39.7998C125.723 39.9782 125.356 40.0674 124.869 40.0674H123.141V36.2633H124.819C125.253 36.2633 125.593 36.3477 125.839 36.5164C126.084 36.6852 126.207 36.9262 126.207 37.2396C126.207 37.4469 126.15 37.6253 126.034 37.7748C125.923 37.9194 125.766 38.0279 125.564 38.1002ZM123.64 37.9556H124.783C125.077 37.9556 125.301 37.9002 125.455 37.7893C125.614 37.6784 125.694 37.5168 125.694 37.3047C125.694 37.0926 125.614 36.9335 125.455 36.8274C125.301 36.7213 125.077 36.6683 124.783 36.6683H123.64V37.9556ZM124.848 39.6624C125.176 39.6624 125.421 39.6093 125.585 39.5033C125.749 39.3972 125.831 39.2309 125.831 39.0043C125.831 38.7777 125.757 38.6113 125.607 38.5052C125.458 38.3943 125.221 38.3389 124.898 38.3389H123.64V39.6624H124.848ZM128.966 40.1035C128.599 40.1035 128.269 40.0216 127.975 39.8577C127.681 39.6889 127.449 39.4575 127.281 39.1634C127.112 38.8693 127.028 38.5366 127.028 38.1653C127.028 37.7941 127.112 37.4614 127.281 37.1673C127.449 36.8732 127.681 36.6442 127.975 36.4802C128.269 36.3163 128.599 36.2343 128.966 36.2343C129.332 36.2343 129.662 36.3163 129.957 36.4802C130.251 36.6442 130.48 36.8732 130.644 37.1673C130.812 37.4614 130.897 37.7941 130.897 38.1653C130.897 38.5366 130.812 38.8693 130.644 39.1634C130.48 39.4575 130.251 39.6889 129.957 39.8577C129.662 40.0216 129.332 40.1035 128.966 40.1035ZM128.966 39.6479C129.236 39.6479 129.477 39.5877 129.689 39.4671C129.906 39.3418 130.075 39.1658 130.195 38.9392C130.316 38.7126 130.376 38.4546 130.376 38.1653C130.376 37.876 130.316 37.6181 130.195 37.3915C130.075 37.1649 129.906 36.9913 129.689 36.8708C129.477 36.7454 129.236 36.6827 128.966 36.6827C128.696 36.6827 128.452 36.7454 128.235 36.8708C128.023 36.9913 127.854 37.1649 127.729 37.3915C127.608 37.6181 127.548 37.876 127.548 38.1653C127.548 38.4546 127.608 38.7126 127.729 38.9392C127.854 39.1658 128.023 39.3418 128.235 39.4671C128.452 39.5877 128.696 39.6479 128.966 39.6479ZM136.102 36.2633V40.0674H135.632V37.0588L134.091 39.6045H133.86L132.32 37.0516V40.0674H131.849V36.2633H132.37L133.983 39.0043L135.625 36.2633H136.102ZM141.127 36.2343C141.483 36.2343 141.806 36.3163 142.096 36.4802C142.385 36.6393 142.612 36.866 142.775 37.1601C142.939 37.4542 143.021 37.7893 143.021 38.1653C143.021 38.5462 142.939 38.8837 142.775 39.1778C142.612 39.4719 142.385 39.701 142.096 39.8649C141.811 40.024 141.488 40.1035 141.127 40.1035C140.818 40.1035 140.538 40.0409 140.288 39.9155C140.042 39.7853 139.839 39.5973 139.68 39.3514V41.4704H139.167V36.2633H139.658V37.0154C139.813 36.7647 140.015 36.5718 140.266 36.4368C140.521 36.3018 140.808 36.2343 141.127 36.2343ZM141.09 39.6479C141.356 39.6479 141.597 39.5877 141.814 39.4671C142.031 39.3418 142.199 39.1658 142.32 38.9392C142.445 38.7126 142.508 38.4546 142.508 38.1653C142.508 37.876 142.445 37.6205 142.32 37.3987C142.199 37.1721 142.031 36.9961 141.814 36.8708C141.597 36.7454 141.356 36.6827 141.09 36.6827C140.82 36.6827 140.577 36.7454 140.36 36.8708C140.148 36.9961 139.979 37.1721 139.854 37.3987C139.733 37.6205 139.673 37.876 139.673 38.1653C139.673 38.4546 139.733 38.7126 139.854 38.9392C139.979 39.1658 140.148 39.3418 140.36 39.4671C140.577 39.5877 140.82 39.6479 141.09 39.6479ZM145.578 37.6085C146.056 37.6133 146.42 37.7193 146.67 37.9267C146.921 38.134 147.046 38.4329 147.046 38.8235C147.046 39.2285 146.911 39.5394 146.641 39.7564C146.371 39.9734 145.986 40.0794 145.484 40.0746L143.98 40.0674V36.2633H144.493V37.594L145.578 37.6085ZM147.683 36.2633H148.196V40.0674H147.683V36.2633ZM145.455 39.6841C145.807 39.6889 146.072 39.619 146.251 39.4743C146.434 39.3249 146.526 39.1079 146.526 38.8235C146.526 38.5438 146.437 38.3365 146.258 38.2015C146.08 38.0665 145.812 37.9966 145.455 37.9918L144.493 37.9773V39.6696L145.455 39.6841ZM149.514 36.2633H150.027V37.9484H152.421V36.2633H152.935V40.0674H152.421V38.3895H150.027V40.0674H149.514V36.2633ZM155.631 38.3751H154.763V40.0674H154.249V36.2633H154.763V37.9339H155.638L156.976 36.2633H157.533L156.036 38.1075L157.641 40.0674H157.034L155.631 38.3751ZM161.5 38.3244H158.317C158.346 38.7198 158.498 39.0404 158.773 39.2863C159.048 39.5274 159.395 39.6479 159.814 39.6479C160.051 39.6479 160.268 39.6069 160.465 39.525C160.663 39.4382 160.834 39.3128 160.979 39.1489L161.268 39.4816C161.099 39.6841 160.887 39.8384 160.632 39.9444C160.381 40.0505 160.104 40.1035 159.8 40.1035C159.409 40.1035 159.062 40.0216 158.759 39.8577C158.46 39.6889 158.226 39.4575 158.057 39.1634C157.888 38.8693 157.804 38.5366 157.804 38.1653C157.804 37.7941 157.883 37.4614 158.043 37.1673C158.207 36.8732 158.428 36.6442 158.708 36.4802C158.992 36.3163 159.311 36.2343 159.663 36.2343C160.015 36.2343 160.33 36.3163 160.61 36.4802C160.89 36.6442 161.109 36.8732 161.268 37.1673C161.427 37.4566 161.507 37.7893 161.507 38.1653L161.5 38.3244ZM159.663 36.6755C159.296 36.6755 158.988 36.7936 158.737 37.0299C158.491 37.2613 158.351 37.5651 158.317 37.9411H161.015C160.981 37.5651 160.839 37.2613 160.588 37.0299C160.342 36.7936 160.034 36.6755 159.663 36.6755Z" fill="#373943"/>
</svg>
